<svg width="52" height="52" viewBox="0 0 52 52" fill="none" xmlns="http://www.w3.org/2000/svg">
<g clip-path="url(#clip0_3772_33762)">
<path d="M51.9999 12.3081V31.9763C51.9999 32.821 51.3152 33.5057 50.4705 33.5057H48.1048V17.9936C48.1048 16.1599 46.6187 14.6738 44.785 14.6738H24.6661C24.5665 14.6738 24.4757 14.6175 24.4316 14.5278L22.356 10.3177C21.7918 9.17474 20.6512 8.46619 19.3777 8.46619H13.9072V6.0997C13.9072 5.25507 14.592 4.57031 15.4366 4.57031H26.3312C26.4323 4.57031 26.522 4.62625 26.5656 4.71631L28.6417 8.92719C29.2055 10.069 30.3465 10.7787 31.62 10.7787H50.4705C51.3152 10.7787 51.9999 11.4635 51.9999 12.3081Z" fill="#E4ADF2"/>
<path d="M45.0464 17.9936V38.9301C45.0464 39.7747 44.3616 40.4595 43.517 40.4595H41.1517V24.947C41.1517 23.1137 39.6652 21.6272 37.8319 21.6272H17.713C17.613 21.6272 17.5222 21.5713 17.4785 21.4816L15.4024 17.2715C14.8296 16.1111 13.6783 15.42 12.4242 15.42H6.9541V13.0543C6.9541 12.2097 7.63885 11.5249 8.48349 11.5249H19.3781C19.4788 11.5249 19.5685 11.58 19.6125 11.6697L21.6882 15.8806C22.2523 17.0228 23.3929 17.7325 24.6664 17.7325H44.7853C44.929 17.7325 45.0464 17.8499 45.0464 17.9936Z" fill="#E4ADF2"/>
<path d="M37.8316 24.686H17.7127C16.4392 24.686 15.2982 23.9766 14.7345 22.8344C13.6883 20.7115 14.1489 21.6478 12.6584 18.6244C12.6148 18.5339 12.5247 18.4788 12.424 18.4788H1.52939C0.684753 18.4788 0 19.1635 0 20.0081V45.8848C0 46.7294 0.684753 47.4142 1.52939 47.4142H36.5633C37.4079 47.4142 38.0927 46.7294 38.0927 45.8848V24.947C38.0927 24.8034 37.9753 24.686 37.8316 24.686ZM28.8549 42.457C28.8549 43.3052 28.1638 43.9864 27.3255 43.9864C26.4884 43.9864 25.7961 43.306 25.7961 42.457C25.7961 41.8992 25.7961 42.0182 25.7961 41.4616C25.7961 40.6214 26.4781 39.9323 27.3255 39.9323C28.1717 39.9323 28.8549 40.6214 28.8549 41.4616V42.457ZM33.8695 42.457C33.8695 43.3052 33.178 43.9864 32.3401 43.9864C31.4979 43.9864 30.8103 43.3033 30.8103 42.457C30.8103 41.8992 30.8103 42.0182 30.8103 41.4616C30.8103 40.6206 31.4927 39.9323 32.3401 39.9323C33.1863 39.9323 33.8695 40.6214 33.8695 41.4616V42.457Z" fill="#BB33DF"/>
</g>
<defs>
<clipPath id="clip0_3772_33762">
<rect width="52" height="52" fill="white"/>
</clipPath>
</defs>
</svg>
